<?xml version="1.0" encoding="UTF-8"?>
<svg xmlns="http://www.w3.org/2000/svg" xmlns:xlink="http://www.w3.org/1999/xlink" width="80px" height="84px" viewBox="0 0 80 83" version="1.1">
<g id="surface1">
<path style=" stroke:none;fill-rule:nonzero;fill:rgb(0%,35.686275%,73.333333%);fill-opacity:1;" d="M 71.175781 33.808594 C 65.941406 32.988281 60.371094 33.25 55.09375 33.359375 C 54.023438 33.382812 52.945312 33.484375 51.875 33.464844 C 51.117188 33.453125 51.105469 32.707031 51.078125 32.089844 C 50.980469 29.929688 51.984375 27.734375 52.90625 25.832031 C 55.035156 21.425781 57.28125 17.457031 57.160156 12.421875 C 57.046875 7.6875 54.808594 3.347656 49.941406 2.09375 C 49.933594 2.09375 49.925781 2.089844 49.910156 2.085938 C 48.9375 1.875 47.683594 1.566406 46.785156 2.179688 C 45.714844 2.90625 46.054688 5.429688 45.921875 6.558594 C 45.527344 9.953125 45.082031 13.347656 43.738281 16.523438 C 42.757812 18.84375 41.257812 20.558594 39.289062 22.113281 C 37.605469 23.445312 35.910156 24.875 35.03125 26.878906 C 32.976562 31.550781 31.117188 36.300781 28.136719 40.503906 C 27.914062 40.820312 27.667969 41.160156 27.398438 41.5 L 78.199219 41.5 C 78.105469 40.011719 77.132812 38.507812 76.265625 37.308594 C 74.933594 35.472656 73.492188 34.171875 71.175781 33.808594 Z M 71.175781 33.808594 "/>
<path style=" stroke:none;fill-rule:nonzero;fill:rgb(100%,83.529412%,0%);fill-opacity:1;" d="M 22.792969 44.644531 C 22.066406 44.679688 21.054688 44.289062 21.054688 45.222656 C 21.054688 46.464844 21.054688 47.707031 21.054688 48.949219 C 21.054688 54.460938 21.054688 59.96875 21.054688 65.476562 C 21.054688 68.34375 21.054688 71.207031 21.054688 74.070312 C 21.050781 74.519531 20.738281 76.976562 21.195312 77.207031 C 22.019531 77.621094 23.328125 77.625 24.234375 77.789062 C 26.84375 78.265625 29.453125 78.730469 32.054688 79.21875 C 34.261719 79.628906 36.519531 80.238281 38.761719 80.371094 C 44.089844 80.699219 49.394531 81.101562 54.738281 81.160156 C 59.628906 81.214844 64.945312 81.417969 68.867188 78.109375 C 69.816406 77.304688 70.789062 76.378906 71.453125 75.324219 C 72.109375 74.28125 71.992188 73.207031 71.984375 72.035156 C 71.964844 69.625 72.941406 68.757812 74.597656 67.125 C 75.464844 66.273438 76.421875 65.242188 76.53125 63.972656 C 76.628906 62.867188 76.035156 61.75 75.621094 60.757812 C 75.234375 59.835938 74.605469 58.617188 74.984375 57.597656 C 75.339844 56.636719 76.242188 55.839844 76.90625 55.085938 C 77.710938 54.164062 78.597656 53.175781 78.09375 51.890625 C 77.710938 50.925781 77.082031 50.0625 76.550781 49.175781 C 76.011719 48.285156 75.3125 47.21875 75.8125 46.164062 C 76.261719 45.203125 77.070312 44.421875 77.65625 43.546875 C 78.097656 42.890625 78.246094 42.195312 78.199219 41.5 L 27.398438 41.5 C 26.230469 42.996094 24.660156 44.550781 22.792969 44.644531 Z M 22.792969 44.644531 "/>
<path style=" stroke:none;fill-rule:nonzero;fill:rgb(100%,83.529412%,0%);fill-opacity:1;" d="M 5.414062 79.636719 L 14.148438 79.636719 C 16.167969 79.636719 17.804688 78.015625 17.804688 76.015625 L 17.804688 46.453125 C 17.804688 44.453125 16.167969 42.832031 14.148438 42.832031 L 5.414062 42.832031 C 3.394531 42.832031 1.757812 44.453125 1.757812 46.453125 L 1.757812 76.015625 C 1.757812 78.015625 3.394531 79.636719 5.414062 79.636719 Z M 5.414062 79.636719 "/>
<path style="fill:none;stroke-width:3;stroke-linecap:butt;stroke-linejoin:miter;stroke:rgb(0%,0%,0%);stroke-opacity:1;stroke-miterlimit:10;" d="M 1536.337534 1110.550287 C 1552.414115 1091.964989 1570.12957 1072.04092 1560.062197 1046.131755 C 1552.414115 1026.680194 1539.849409 1009.276165 1529.235744 991.399628 C 1518.465996 973.444341 1504.49654 951.945247 1514.485871 930.682406 C 1523.460662 911.309596 1539.615284 895.559343 1551.321532 877.919061 C 1560.140238 864.688849 1563.105821 850.671125 1562.169321 836.6534 C 1560.296322 806.649169 1540.86395 776.329934 1523.538703 752.153297 C 1496.9265 715.140204 1468.12913 688.916034 1421.85043 681.592167 C 1317.274615 665.054402 1205.987219 670.330736 1100.552946 672.535771 C 1079.169533 673.008279 1057.630037 675.055812 1036.246624 674.662056 C 1021.106543 674.425802 1020.872418 659.384311 1020.326127 646.941612 C 1018.375086 603.392164 1038.43179 559.133955 1056.84962 520.782091 C 1099.382321 431.950668 1144.256271 351.939387 1141.83698 250.429011 C 1139.573772 154.982482 1094.855905 67.489831 997.616006 42.210676 C 997.459923 42.210676 997.303839 42.131925 996.991673 42.053174 C 977.559301 37.800605 952.507931 31.579256 934.558351 43.943204 C 913.174938 58.590938 919.964562 109.464253 917.311145 132.223368 C 909.428938 200.658214 900.53219 269.09306 873.685862 333.117835 C 854.097407 379.896084 824.129412 414.467888 784.796419 445.81089 C 751.160467 472.66507 717.29039 501.488032 699.731018 541.887429 C 658.681109 636.073937 621.533282 731.835471 561.987501 816.571828 C 557.539127 822.950681 552.622503 829.80204 547.237629 836.6534 C 523.903174 866.815133 492.53043 898.158135 455.22652 900.048165 C 440.710773 900.756927 420.497985 892.881801 420.497985 911.703352 C 420.497985 936.746253 420.497985 961.789154 420.497985 986.832055 C 420.497985 1097.950085 420.497985 1208.989363 420.497985 1320.028642 C 420.497985 1377.832068 420.497985 1435.556742 420.497985 1493.281417 C 420.419943 1502.337812 414.176611 1551.872355 423.307484 1556.518679 C 439.774273 1564.866313 465.918226 1564.945064 484.02389 1568.252617 C 536.155714 1577.860271 588.287538 1587.231671 640.263279 1597.075579 C 684.356812 1605.344462 729.464887 1617.629658 774.260796 1620.307201 C 880.70961 1626.922307 986.690175 1635.033687 1093.451155 1636.214956 C 1191.159305 1637.317474 1297.373994 1641.412539 1375.727813 1574.710221 C 1394.691935 1558.487461 1414.124306 1539.823412 1427.391387 1518.560572 C 1440.502385 1497.533985 1438.161135 1475.877388 1438.005052 1452.25201 C 1437.614844 1403.662481 1457.125257 1386.179701 1490.214918 1353.261674 C 1507.540164 1336.093899 1526.660369 1315.303566 1528.845536 1289.709406 C 1530.796577 1267.422799 1518.934246 1244.899939 1510.661831 1224.897118 C 1502.935707 1206.311821 1490.371001 1181.741427 1497.941041 1161.187348 C 1505.042832 1141.814538 1523.070453 1125.74928 1536.337534 1110.550287 Z M 1536.337534 1110.550287 " transform="matrix(0.0500534,0,0,0.0496024,0.00733398,0)"/>
<path style="fill:none;stroke-width:3;stroke-linecap:butt;stroke-linejoin:miter;stroke:rgb(0%,0%,0%);stroke-opacity:1;stroke-miterlimit:10;" d="M 282.520343 863.50758 L 108.019207 863.50758 C 67.671673 863.50758 34.972221 896.189354 34.972221 936.509999 L 34.972221 1532.499545 C 34.972221 1572.820191 67.671673 1605.501964 108.019207 1605.501964 L 282.520343 1605.501964 C 322.867877 1605.501964 355.56733 1572.820191 355.56733 1532.499545 L 355.56733 936.509999 C 355.56733 896.189354 322.867877 863.50758 282.520343 863.50758 Z M 282.520343 863.50758 " transform="matrix(0.0500534,0,0,0.0496024,0.00733398,0)"/>
</g>
</svg>
